# xmcd
#
# Track frame offsets: 
#        150
#        17916
#        34848
#        58293
#        73697
#        88341
#        107431
#        128727
#        149706
#        166454
#        192007
#        207170
#        226781
#        246540
#        269665
#        296663
#        327632
#
# Disc length: 4720 seconds
#
# Revision: 0
# Processed by: cddbd v1.5.2PL0 Copyright (c) Steve Scherf et al.
# Submitted via: ExactAudioCopy v0.95b4
#
DISCID=11126e11
DTITLE=Бока - Где Ты,Юность Моя
DYEAR=2008
DGENRE=Chanson
TTITLE0=Это Любимая Ты
TTITLE1=Моряк
TTITLE2=Мишка
TTITLE3=Братишка
TTITLE4=Скоро-Скоро
TTITLE5=Безумно Я Люблю
TTITLE6=Осенней Порой
TTITLE7=Где Ты ,Юность Моя
TTITLE8=Хлопнем-Хлопнем
TTITLE9=Головушка Седая
TTITLE10=Первая Любовь
TTITLE11=Доля Воровская
TTITLE12=Милая
TTITLE13=Не Проси
TTITLE14=Моя Доля
TTITLE15=Звенит Звонок
TTITLE16=Доля Малолетки
EXTD=
EXTT0=
EXTT1=
EXTT2=
EXTT3=
EXTT4=
EXTT5=
EXTT6=
EXTT7=
EXTT8=
EXTT9=
EXTT10=
EXTT11=
EXTT12=
EXTT13=
EXTT14=
EXTT15=
EXTT16=
PLAYORDER=
